<svg width="560" height="132" viewBox="0 0 560 132" fill="none" xmlns="http://www.w3.org/2000/svg">
  <defs>
    <linearGradient id="light-bg" x1="15" y1="10" x2="116" y2="121" gradientUnits="userSpaceOnUse">
      <stop stop-color="#11284A"/>
      <stop offset="1" stop-color="#081426"/>
    </linearGradient>
  </defs>
  <g transform="translate(2 2) scale(2)">
    <rect x="3" y="3" width="58" height="58" rx="17" fill="url(#light-bg)"/>
    <rect x="3.5" y="3.5" width="57" height="57" rx="16.5" stroke="#5EEAD4" stroke-opacity="0.18"/>
    <path d="M14 11H28V28H9V16C9 13.239 11.239 11 14 11Z" fill="#20B8AE"/>
    <path d="M32 9H49C52.314 9 55 11.686 55 15V28H32V9Z" fill="#3385F6"/>
    <path d="M9 32H28V55H15C11.686 55 9 52.314 9 49V32Z" fill="#5DD9CF"/>
    <path d="M32 32H55V48C55 51.866 51.866 55 48 55H32V32Z" fill="#1D5FA8"/>
    <path d="M17 47C17.8 40.8 23.4 40.1 27.7 36.1C33.2 31 32.4 24.8 39.6 21.3" stroke="white" stroke-width="3" stroke-linecap="round" stroke-dasharray="1 5"/>
    <circle cx="17" cy="47" r="3.2" fill="white"/>
    <path d="M48 17.2C48 21.75 42.5 27.4 42.5 27.4C42.5 27.4 37 21.75 37 17.2C37 14.162 39.462 11.7 42.5 11.7C45.538 11.7 48 14.162 48 17.2Z" fill="white"/>
    <circle cx="42.5" cy="17.2" r="2.2" fill="#0B1B32"/>
  </g>
  <text x="153" y="61" fill="#F8FAFC" font-family="Segoe UI, sans-serif" font-size="43" font-weight="750" letter-spacing="-1.5">Territorios</text>
  <text x="378" y="61" fill="#54D8D0" font-family="Segoe UI, sans-serif" font-size="43" font-weight="750" letter-spacing="-1.5">App</text>
  <text x="156" y="92" fill="#94A3B8" font-family="Segoe UI, sans-serif" font-size="17" font-weight="500" letter-spacing="2.8">ORGANIZA · ASIGNA · COMPLETA</text>
</svg>
